PathFileType	4	(X/Y/Z)	/Users/itak/Documents/Research/Walk-IL/dataset/trc/00180_00008.trc
DataRate	CameraRate	NumFrames	NumMarkers	Units	OrigDataRate	OrigDataStartFrame	OrigNumFrames
100.000000	100.000000	4	53	mm	100.000000	165	663
Frame#	Time	RPSI			LPSI			L3			STRN			T10			C7			CLAV			RBAK			LBAK			LSHO			LUPA			LAEL			LAOL			LWTS			LWPS			LFRA			LIFD			LHPS			LHTS			RSHO			RUPA			RAEL			RAOL			RWTS			RWPS			RFRA			RIFD			RHTS			RHPS			RBHD			LFHD			RFHD			LBHD			LHIP			RHIP			RASI			LASI			LKNE			LTHI			LANK			LTIP			LTOE			LMT1			LMT5			LHEE			RKNE			RTHI			RANK			RTIP			RTOE			RMT1			RMT5			RHEE			
		X1	Y1	Z1	X2	Y2	Z2	X3	Y3	Z3	X4	Y4	Z4	X5	Y5	Z5	X6	Y6	Z6	X7	Y7	Z7	X8	Y8	Z8	X9	Y9	Z9	X10	Y10	Z10	X11	Y11	Z11	X12	Y12	Z12	X13	Y13	Z13	X14	Y14	Z14	X15	Y15	Z15	X16	Y16	Z16	X17	Y17	Z17	X18	Y18	Z18	X19	Y19	Z19	X20	Y20	Z20	X21	Y21	Z21	X22	Y22	Z22	X23	Y23	Z23	X24	Y24	Z24	X25	Y25	Z25	X26	Y26	Z26	X27	Y27	Z27	X28	Y28	Z28	X29	Y29	Z29	X30	Y30	Z30	X31	Y31	Z31	X32	Y32	Z32	X33	Y33	Z33	X34	Y34	Z34	X35	Y35	Z35	X36	Y36	Z36	X37	Y37	Z37	X38	Y38	Z38	X39	Y39	Z39	X40	Y40	Z40	X41	Y41	Z41	X42	Y42	Z42	X43	Y43	Z43	X44	Y44	Z44	X45	Y45	Z45	X46	Y46	Z46	X47	Y47	Z47	X48	Y48	Z48	X49	Y49	Z49	X50	Y50	Z50	X51	Y51	Z51	X52	Y52	Z52	X53	Y53	Z53	

166	1.65	903.3560180664062	1046.135375976562	737.0367431640625	790.1597290039062	1036.820922851562	683.4749755859375	843.2203979492188	1075.302368164062	708.7219848632812	948.3350219726562	1291.076782226562	475.5455017089844	808.4730224609375	1228.664672851562	738.6357421875	813.7805786132812	1499.11962890625	674.078125	921.1702270507812	1402.583862304688	498.3588256835938	886.2401123046875	1327.776977539062	785.1826782226562	723.3330688476562	1470.73828125	631.1563110351562	693.571044921875	1456.906494140625	525.2432250976562	619.110107421875	1320.119018554688	521.4314575195312	619.1266479492188	1104.824951171875	511.1242980957031	668.7666625976562	1092.994506835938	586.6654663085938	673.3619995117188	861.6044921875	442.9831237792969	609.297607421875	854.5701904296875	509.0686645507812	607.24560546875	996.6803588867188	502.3941650390625	673.4560546875	674.8366088867188	459.6528930664062	609.9690551757812	784.5701904296875	498.2506713867188	647.0107421875	783.2070922851562	435.6951599121094	1000.603637695312	1490.389282226562	706.7410278320312	1051.723999023438	1429.6396484375	761.595947265625	1109.65966796875	1152.721557617188	827.619873046875	1026.790405273438	1133.106689453125	775.9293823242188	1197.053588867188	926.255615234375	714.4224243164062	1194.871826171875	914.5078125	802.5366821289062	1146.834594726562	1083.114624023438	821.3383178710938	1202.497802734375	735.6405029296875	703.318359375	1226.163208007812	832.748779296875	704.3538208007812	1214.810180664062	832.0896606445312	783.71484375	917.2838134765625	1678.83544921875	617.6130981445312	824.160888671875	1680.754638671875	420.70458984375	950.4737548828125	1696.975219726562	445.6671752929688	782.9536743164062	1671.146484375	595.446533203125	726.7335815429688	961.0342407226562	544.454345703125	1082.66796875	1014.176696777344	641.7984619140625	1062.049560546875	1038.88427734375	546.4661254882812	823.7938232421875	1007.372680664062	449.5115661621094	790.4845581054688	455.4726867675781	551.6583251953125	769.0228271484375	601.8778076171875	531.7308349609375	676.3997192382812	214.1804809570312	953.121337890625	728.4515991210938	322.8249816894531	739.079345703125	778.4940185546875	36.78865432739258	897.3507080078125	798.4307250976562	87.63496398925781	928.2068481445312	679.6123657226562	107.0235443115234	912.2779541015625	719.0745849609375	275.03125	993.142578125	1120.606079101562	528.5519409179688	504.9840087890625	1134.60595703125	796.2073364257812	552.3037719726562	1134.790405273438	28.36825942993164	559.1983032226562	1118.6884765625	404.0616455078125	478.799560546875	1144.00439453125	42.73690414428711	336.2440185546875	1090.505981445312	45.51222991943359	378.7713317871094	1191.075439453125	24.65657043457031	459.0613098144531	1056.798217773438	34.45574569702148	594.375244140625	
167	1.66	910.51953125	1048.099853515625	727.5718383789062	796.6641845703125	1038.398071289062	675.6595458984375	850.1856689453125	1077.263916015625	700.1202392578125	951.0131225585938	1292.780395507812	464.9262390136719	815.8005981445312	1230.771606445312	730.43017578125	819.9546508789062	1501.177124023438	665.4913330078125	924.30712890625	1404.355834960938	488.0050964355469	894.28173828125	1329.963623046875	775.5524291992188	728.8375854492188	1472.875732421875	623.9658203125	697.38330078125	1459.184814453125	518.6075439453125	622.12255859375	1322.856567382812	516.0101928710938	620.1220092773438	1108.041870117188	506.5545654296875	671.3169555664062	1095.938110351562	581.2230834960938	666.66845703125	862.6557006835938	440.6509094238281	604.5425415039062	858.6972045898438	508.8545227050781	605.8667602539062	1000.574645996094	499.6656799316406	661.9774169921875	676.001220703125	462.0871276855469	602.485107421875	788.666015625	499.3410949707031	637.8410034179688	784.3897094726562	436.0693969726562	1007.218017578125	1492.50048828125	694.8126831054688	1059.279174804688	1431.953369140625	749.0643920898438	1119.015747070312	1155.212890625	814.8385620117188	1035.537963867188	1135.428588867188	764.6300659179688	1205.550415039062	929.80712890625	698.7731323242188	1204.510986328125	917.1703491210938	786.826416015625	1156.318969726562	1085.583862304688	807.6546020507812	1212.217163085938	739.5482788085938	685.421630859375	1235.202514648438	836.7805786132812	687.39697265625	1224.674926757812	835.0520629882812	766.868896484375	922.49169921875	1680.709716796875	607.4560546875	826.79736328125	1682.671875	411.7595825195312	953.4401245117188	1698.809936523438	435.1062927246094	787.8724975585938	1673.12548828125	587.0589599609375	731.2454833984375	962.1539306640625	537.9234619140625	1088.31494140625	1015.662719726562	629.8175659179688	1066.399780273438	1040.214477539062	534.6878662109375	826.4457397460938	1009.205017089844	441.3726501464844	797.9164428710938	456.0160217285156	530.2092895507812	775.1860961914062	602.8837890625	515.2904052734375	688.7554931640625	223.8725433349609	936.8704833984375	738.6091918945312	326.6932067871094	720.2633056640625	780.6372680664062	39.68560791015625	877.3333129882812	804.441162109375	91.91616821289062	906.8367309570312	686.96337890625	116.811767578125	895.618896484375	734.506103515625	282.3432006835938	976.6665649414062	1122.9140625	527.9741821289062	499.6473083496094	1138.765014648438	796.1889038085938	542.9967041015625	1134.79345703125	28.59372711181641	559.0182495117188	1120.101684570312	403.2791442871094	474.6919555664062	1143.627807617188	41.68986129760742	335.6780090332031	1090.312255859375	45.0734748840332	378.3737182617188	1191.044555664062	24.72706604003906	459.0414733886719	1056.850708007812	34.65561294555664	594.2433471679688	
168	1.67	917.4102783203125	1049.916015625	718.2310791015625	802.9602661132812	1039.927368164062	667.8326416015625	856.9677734375	1079.146118164062	691.6410522460938	953.4273071289062	1294.254028320312	454.382080078125	823.0162353515625	1232.8583984375	722.28857421875	826.0532836914062	1503.134887695312	656.8869018554688	927.2050170898438	1405.9091796875	477.6777648925781	902.2735595703125	1332.120483398438	765.9688110351562	734.263427734375	1474.8857421875	616.857421875	701.0311889648438	1461.255615234375	512.1244506835938	624.9232177734375	1325.443603515625	510.8918151855469	620.7092895507812	1111.095581054688	502.1644897460938	673.2898559570312	1098.619140625	575.9993286132812	660.46533203125	864.01953125	438.233154296875	600.0486450195312	862.6986083984375	508.1365356445312	604.3526611328125	1004.274230957031	496.8920288085938	651.9024658203125	677.66552734375	464.0187377929688	595.64892578125	792.6869506835938	499.7619018554688	629.6322631835938	785.9526977539062	436.03125	1013.748107910156	1494.466552734375	682.7677612304688	1066.782348632812	1434.15625	736.3601684570312	1128.392456054688	1157.631103515625	802.0131225585938	1044.261352539062	1137.596435546875	753.438720703125	1213.941040039062	933.3580932617188	682.9688110351562	1214.076904296875	919.7510986328125	770.9285278320312	1165.792602539062	1087.970825195312	793.887939453125	1221.805541992188	743.5198974609375	667.1102294921875	1244.136352539062	840.8661499023438	670.1752319335938	1234.443115234375	837.954345703125	749.7327270507812	927.5213012695312	1682.448608398438	597.2786254882812	829.1863403320312	1684.449584960938	402.86328125	956.1546630859375	1700.5390625	424.5412902832031	792.6253662109375	1674.929809570312	578.6992797851562	735.5491943359375	963.3557739257812	531.370361328125	1093.64990234375	1017.026062011719	618.0203247070312	1070.510620117188	1041.355346679688	523.0614624023438	828.9671630859375	1010.933349609375	433.2820739746094	804.7604370117188	457.1188354492188	509.0099182128906	780.9282836914062	604.2828979492188	499.0405578613281	701.73291015625	231.7991180419922	919.680908203125	748.7257080078125	330.3089904785156	701.23779296875	783.6964111328125	43.07617568969727	854.5275268554688	811.187255859375	95.61631774902344	883.3058471679688	695.186767578125	125.545166015625	876.990966796875	750.4082641601562	287.5665893554688	959.6293334960938	1125.225341796875	527.410400390625	494.3966064453125	1142.438110351562	796.2696533203125	533.6165771484375	1134.826782226562	28.77842903137207	558.847900390625	1121.471069335938	402.5008239746094	470.7130126953125	1143.36376953125	40.91488647460938	335.2291564941406	1090.212768554688	44.75382995605469	378.0569458007812	1191.03955078125	24.75156593322754	459.029052734375	1056.949096679688	34.87074661254883	594.133056640625	
169	1.68	923.9891967773438	1051.552368164062	708.9784545898438	809.007568359375	1041.400268554688	659.9566650390625	863.5354614257812	1080.946533203125	683.25244140625	955.6226806640625	1295.542358398438	443.93212890625	830.0892944335938	1234.919189453125	714.1875	832.0655517578125	1504.992309570312	648.2677612304688	929.886474609375	1407.283447265625	467.401123046875	910.1790771484375	1334.236694335938	756.4220581054688	739.6057739257812	1476.774658203125	609.8262329101562	704.5333862304688	1463.126586914062	505.7863159179688	627.5319213867188	1327.904296875	506.07177734375	620.8971557617188	1114.004272460938	498.015625	674.7102661132812	1101.083251953125	571.0420532226562	654.8013916015625	865.6471557617188	435.6979064941406	595.815185546875	866.4971923828125	506.9258422851562	602.7034912109375	1007.7509765625	494.1046752929688	643.2445068359375	679.683837890625	465.2435913085938	589.4817504882812	796.5130004882812	499.4826965332031	622.4050903320312	787.8152465820312	435.4998168945312	1020.162780761719	1496.301879882812	670.6495361328125	1074.19970703125	1436.252197265625	723.5117797851562	1137.77880859375	1159.975341796875	789.0897216796875	1052.950805664062	1139.6181640625	742.2645874023438	1222.19921875	936.8756103515625	667.0181274414062	1223.567504882812	922.2667236328125	754.855712890625	1175.244995117188	1090.287841796875	779.9931640625	1231.174072265625	747.4976196289062	648.530517578125	1252.9052734375	844.9439086914062	652.7461547851562	1244.0986328125	840.8041381835938	732.3673706054688	932.3812866210938	1684.05517578125	587.0643920898438	831.3339233398438	1686.077758789062	394.0054931640625	958.6193237304688	1702.144775390625	413.9540100097656	797.2265625	1676.579711914062	570.358154296875	739.6326904296875	964.6871337890625	524.6804809570312	1098.674194335938	1018.286804199219	606.4412231445312	1074.422241210938	1042.383056640625	511.6290893554688	831.4327392578125	1012.609985351562	425.236083984375	810.978515625	458.7731323242188	488.1627807617188	786.2275390625	606.0654907226562	483.0083923339844	715.1580810546875	237.7127075195312	901.6216430664062	758.6724243164062	333.5523071289062	682.064453125	787.97509765625	46.60803604125977	829.3572998046875	818.8043823242188	98.59101104736328	858.043212890625	704.2594604492188	132.8615570068359	856.6382446289062	766.572509765625	290.5762023925781	941.9654541015625	1127.517944335938	526.8563842773438	489.2774353027344	1145.7021484375	796.4398193359375	524.141357421875	1134.85400390625	28.95660591125488	558.6812133789062	1122.845825195312	401.7456359863281	466.9277648925781	1143.204467773438	40.35969161987305	334.8721008300781	1090.193969726562	44.52400970458984	377.7959289550781	1191.056274414062	24.74370002746582	459.02783203125	1057.040405273438	35.09892654418945	594.0147094726562	
